<svg fill="#00d4f0" height="32px" width="32px" version="1.1" id="Layer_1" xmlns="http://www.w3.org/2000/svg" xmlns:xlink="http://www.w3.org/1999/xlink" viewBox="0 0 485 485" xml:space="preserve" stroke="#00d4f0">

                        <g id="SVGRepo_bgCarrier" stroke-width="0"/>
                        
                        <g id="SVGRepo_tracerCarrier" stroke-linecap="round" stroke-linejoin="round"/>
                        
                        <g id="SVGRepo_iconCarrier"> <g> <g> <g> <path d="M375.935,375.033c-10.499-5.408-22.443-10.276-35.513-14.472c-0.767-0.409-2.271-1.216-4.303-2.33 c-16.647-9.173-29.798-17.854-36.119-23.79v-24.298c30.386-17.373,51.164-48.543,57.804-86.696 C375.018,218.517,390,202.361,390,187.5c0-15.043-11.308-25.026-30-27.094v-62.67c0.22-3.847,1.361-37.556-23.803-64.632 C315.783,11.138,284.259,0,242.5,0c-41.759,0-73.283,11.138-93.697,33.103C123.639,60.179,124.78,93.889,125,97.735v62.67 c-18.692,2.068-30,12.051-30,27.094c0,14.861,14.982,31.017,32.196,35.946c6.646,38.168,27.428,69.337,57.804,86.697v24.298 c-6.321,5.936-19.471,14.616-36.106,23.783c-2.06,1.129-3.577,1.943-4.338,2.348c-13.407,4.401-25.361,9.341-35.486,14.659 c-62.57,32.182-64.036,75.318-64.068,77.139L45,485h395v-32.537C439.991,450.626,439.051,407.119,375.935,375.033z M360,175.482 c13.367,1.874,15,8.786,15,12.018c0,6.126-6.627,14.467-15.266,19.07C359.899,203.606,360,175.482,360,175.482z M110,187.5 c0-3.232,1.633-10.144,15-12.018c0,0,0.101,28.125,0.266,31.088C116.627,201.967,110,193.626,110,187.5z M105,470H60v-17.37 c0.092-2.065,2.189-31.708,45-57.922V470z M145,470h-25v-83.491c7.427-3.641,15.799-7.078,25-10.258V470z M159.933,43.161 C177.404,24.475,205.184,15,242.5,15s65.096,9.475,82.566,28.161c21.74,23.253,19.973,53.51,19.954,53.791l-0.012,27.45 l-18.997-18.997l-15,25l-24.133-24.133l-20,25l-25-25l-20,25l-25-25L177.5,130.494l-19.378-24.223L140,124.394V97.5l-0.019-0.526 C139.96,96.671,138.193,66.414,159.933,43.161z M141.227,216.157c-0.813-5.793-1.227-12.07-1.227-18.657v-51.894l16.878-16.878 l20.622,25.777l20.622-25.777l25,25l20-25l25,25l20-25l25.867,25.867l15-25L345,145.606V197.5c0,6.586-0.413,12.863-1.229,18.674 c-5.158,37.347-25.102,67.549-54.733,82.874C275.075,306.315,259.418,310,242.5,310c-16.918,0-32.575-3.685-46.555-10.962 C166.331,283.723,146.388,253.521,141.227,216.157z M285,317.299v15.566l-42.5,21.25l-42.5-21.25v-15.567 c13.182,5.108,27.424,7.702,42.5,7.702C257.579,325,271.824,322.405,285,317.299z M325,470H160v-40h165V470z M325,415H160 v-45.797c10.379-5.862,24.934-14.669,33.915-22.61l48.585,24.293l48.585-24.293c8.978,7.939,23.528,16.744,33.915,22.61V415z M365,470h-25v-93.782c9.01,3.057,17.379,6.448,25,10.127V470z M425,470h-45v-75.565c43.445,26.306,44.951,56.392,45,58.136V470z "/> <path d="M242.5,235h20v-15H250v-32.5h-15v40C235,231.642,238.357,235,242.5,235z"/> </g> </g> </g> </g>
                        
                        </svg>