<svg fill="#fff" height="18px" width="18px" version="1.1" id="Layer_1" xmlns="http://www.w3.org/2000/svg" xmlns:xlink="http://www.w3.org/1999/xlink" viewBox="0 0 512.00 512.00" xml:space="preserve" stroke="#fff"><g id="SVGRepo_bgCarrier" stroke-width="0"></g><g id="SVGRepo_tracerCarrier" stroke-linecap="round" stroke-linejoin="round"></g><g id="SVGRepo_iconCarrier"> <g> <g> <path d="M510.864,427.935c-13.346-71.009-47.662-135.806-99.24-187.383c-52.45-52.449-117.628-86.645-189.54-99.644l22.084-22.084 c12.161-12.161,19.128-28.317,19.617-45.489c0.495-17.39-5.731-33.832-17.532-46.298c-12.232-12.922-28.751-20.174-46.516-20.418 c-17.784-0.244-34.48,6.542-47.045,19.107L19.082,159.334c-25.443,25.444-25.443,66.843,0,92.287l133.609,133.611 c12.326,12.325,28.713,19.112,46.143,19.112c17.997,0,34.761-7.174,47.205-20.2c24.283-25.418,23.456-66.68-1.844-91.981 l-14.887-14.887c78.049,25.972,137.769,92.825,153.311,175.291c5.768,30.606,32.718,52.82,64.081,52.82 c19.482,0,37.789-8.6,50.227-23.591C509.393,466.77,514.472,447.138,510.864,427.935z M481.227,468.771 c-8.55,10.306-21.134,16.217-34.526,16.217c-21.562,0-40.082-15.224-44.034-36.2C383.306,346.07,301.012,265.601,197.888,248.553 c-0.558-0.093-1.114-0.138-1.667-0.138c-3.774,0-7.302,2.101-9.069,5.539c-2.026,3.943-1.274,8.741,1.859,11.875l40.758,40.758 c17.526,17.527,18.207,45.996,1.519,63.464c-8.558,8.958-20.084,13.891-32.454,13.891c-11.982,0-23.246-4.665-31.719-13.138 L33.507,237.195c-17.489-17.489-17.489-45.947,0-63.436L167.116,40.15c8.638-8.637,20.101-13.302,32.34-13.133 c12.21,0.167,23.567,5.155,31.981,14.043c16.528,17.46,15.768,45.874-1.695,63.337l-36.346,36.346 c-2.756,2.757-3.701,6.843-2.433,10.529c1.268,3.686,4.526,6.328,8.395,6.806c75.35,9.312,143.761,42.817,197.84,96.898 c48.661,48.66,81.034,109.771,93.616,176.725C493.298,444.921,489.804,458.431,481.227,468.771z"></path> </g> </g> <g> <g> <path d="M128.38,283.461l-74.154-74.153c-3.983-3.982-10.442-3.982-14.425,0c-3.984,3.984-3.983,10.443,0,14.426l74.154,74.153 c1.992,1.991,4.602,2.988,7.212,2.988s5.221-0.997,7.212-2.988C132.364,293.903,132.363,287.444,128.38,283.461z"></path> </g> </g> <g> <g> <path d="M159.162,314.066l-5.665-5.665c-3.984-3.982-10.443-3.982-14.426,0c-3.983,3.984-3.983,10.443,0,14.426l5.665,5.665 c1.991,1.991,4.602,2.988,7.212,2.988s5.22-0.997,7.213-2.988C163.145,324.508,163.145,318.049,159.162,314.066z"></path> </g> </g> </g></svg>