<svg fill="#08a0bf" height="32px" width="32px" version="1.1" id="Capa_1"
                        xmlns="http://www.w3.org/2000/svg" xmlns:xlink="http://www.w3.org/1999/xlink"
                        viewBox="0 0 489.2 489.2" xml:space="preserve" stroke="#08a0bf">

                        <g id="SVGRepo_bgCarrier" stroke-width="0" />

                        <g id="SVGRepo_tracerCarrier" stroke-linecap="round" stroke-linejoin="round" />

                        <g id="SVGRepo_iconCarrier">
                            <g>
                                <g>
                                    <path
                                        d="M416.9,73.848h-65.4c-39.9,0-72.2,32.3-72.2,72.2c0,31.9,20.7,58.9,49.4,68.5v34.4c0,3.2,3.9,4.8,6.1,2.5l33.2-33.2h49 c39.9,0,72.2-32.3,72.2-72.2C489.2,106.248,456.8,73.848,416.9,73.848z M411.1,161.348l-11.7,11.7l-15.2-15.2l-15.2,15.2 l-11.7-11.7l15.2-15.2l-15.2-15.2l11.7-11.7l15.2,15.2l15.2-15.2l11.7,11.7l-15.2,15.2L411.1,161.348z" />
                                    <path
                                        d="M329,348.048c-43.5-35.8-90.5-59.5-100-64.2c-1.1-0.5-1.7-1.6-1.7-2.8v-33.2c5.1-8.8,8.4-18.1,9.7-26.6 c3.7-0.3,8.6-5.5,13.9-24.1c6.8-23.9,0.4-28.7-5.7-28.7c0.6-2,1.1-4.1,1.4-6.1c11-65.9-21.5-68.2-21.5-68.2s-5.4-10.3-19.5-18.2 c-9.5-5.6-22.7-10-40.1-8.5c-5.6,0.3-11,1.4-16,3l0,0c-6.4,2.2-12.3,5.3-17.6,9c-6.5,4.1-12.7,9.2-18.1,15 c-8.6,8.8-16.2,20.1-19.6,34.3c-2.8,10.6-2.2,21.6,0.2,33.5l0,0c0.4,2,0.9,4.1,1.4,6.1c-6.1,0.1-12.1,5.1-5.4,28.6 c5.3,18.6,10.2,23.8,13.9,24.1c1.3,8.4,4.6,17.7,9.7,26.6v33.1c0,1.2-0.7,2.3-1.7,2.8c-9.5,4.7-56.5,28.4-100.1,64.2 c-7.8,6.4-12.2,16.1-12.2,26.2v48.1h148.3l14.6-66.9c-29.6-41.3,2.2-43.3,7.8-43.3l0,0l0,0c5.5,0,37.3,2,7.8,43.3l14.6,66.9h148.3 v-48.1C341.3,364.148,336.8,354.448,329,348.048z" />
                                    <path
                                        d="M329,348.048c-43.5-35.8-90.5-59.5-100-64.2c-1.1-0.5-1.7-1.6-1.7-2.8v-33.2c5.1-8.8,8.4-18.1,9.7-26.6 c3.7-0.3,8.6-5.5,13.9-24.1c6.8-23.9,0.4-28.7-5.7-28.7c0.6-2,1.1-4.1,1.4-6.1c11-65.9-21.5-68.2-21.5-68.2s-5.4-10.3-19.5-18.2 c-9.5-5.6-22.7-10-40.1-8.5c-5.6,0.3-11,1.4-16,3l0,0c-6.4,2.2-12.3,5.3-17.6,9c-6.5,4.1-12.7,9.2-18.1,15 c-8.6,8.8-16.2,20.1-19.6,34.3c-2.8,10.6-2.2,21.6,0.2,33.5l0,0c0.4,2,0.9,4.1,1.4,6.1c-6.1,0.1-12.1,5.1-5.4,28.6 c5.3,18.6,10.2,23.8,13.9,24.1c1.3,8.4,4.6,17.7,9.7,26.6v33.1c0,1.2-0.7,2.3-1.7,2.8c-9.5,4.7-56.5,28.4-100.1,64.2 c-7.8,6.4-12.2,16.1-12.2,26.2v48.1h148.3l14.6-66.9c-29.6-41.3,2.2-43.3,7.8-43.3l0,0l0,0c5.5,0,37.3,2,7.8,43.3l14.6,66.9h148.3 v-48.1C341.3,364.148,336.8,354.448,329,348.048z" />
                                </g>
                            </g>
                        </g>

                    </svg>