<svg fill="#fff" height="16px" width="16px" version="1.1" id="Layer_1" xmlns="http://www.w3.org/2000/svg" xmlns:xlink="http://www.w3.org/1999/xlink" viewBox="0 0 480 480" xml:space="preserve" stroke="#fff"><g id="SVGRepo_bgCarrier" stroke-width="0"></g><g id="SVGRepo_tracerCarrier" stroke-linecap="round" stroke-linejoin="round"></g><g id="SVGRepo_iconCarrier"> <g> <g> <g> <path d="M479.281,468.688l-40-88c-0.992-2.184-2.92-3.816-5.24-4.424l-152-40c-0.04-0.008-0.072,0.008-0.112-0.008 c-0.504-0.128-1.016-0.152-1.536-0.176c-0.136,0-0.256-0.08-0.392-0.08v-31.528c16.32-4.152,32.136-10.784,46.768-20.096 l0.792-0.496c20.648-13.144,32.208-37.352,29.432-61.856l-5.088-37.096c0.072-0.616,0.12-1.248,0.048-1.88l-9.008-74.936 c9.216-3.6,17.424-9.576,23.728-17.648c10.688-13.688,14.4-31.192,10.176-48.04l-9.088-36.36C366.873,2.496,363.673,0,360.001,0 h-152c-39.696,0-72,32.296-72,72v32c0,1.4,0.456,2.648,1.088,3.792l-0.672,5.36l-28.36,4.728 c-11.616,1.936-20.056,11.888-20.056,23.672v21.328c0,10.04,6.304,18.904,15.432,22.4l-8.232,32.92 c-2.304,9.216-0.416,18.92,5.184,26.6c5.6,7.688,14.248,12.456,23.736,13.088l5.008,0.336 c5.048,10.168,12.768,19.024,22.736,25.472c15.016,9.712,31.312,16.592,48.136,20.84V336c-0.12,0-0.232-0.064-0.352-0.056 c-0.544,0.024-1.08,0.056-1.6,0.056c-0.024,0-0.056,0-0.08,0l-152,40.136c-2.328,0.608-4.256,2.304-5.248,4.488l-40,88.032 c-1.128,2.48-0.92,5.376,0.552,7.656C2.745,478.6,5.281,480,8.001,480h208h48h208c2.72,0,5.248-1.384,6.728-3.672 C480.193,474.048,480.409,471.168,479.281,468.688z M122.737,222.936c-0.656,6.36-0.32,12.64,0.824,18.704 c-4.088-0.704-7.768-2.864-10.24-6.256c-2.8-3.84-3.744-8.688-2.592-13.304l8.328-33.312l7.744,1.552L122.737,222.936z M128.785,174.4l-18.352-3.672c-3.728-0.744-6.432-4.04-6.432-7.848v-21.328c0-3.928,2.808-7.248,6.688-7.888l23.664-3.944 L128.785,174.4z M152.001,72c0-30.872,25.12-56,56-56h145.752l7.576,30.296c3.008,12.04,0.36,24.544-7.272,34.32 C346.425,90.392,334.929,96,322.521,96h-34.728c5.08-6.704,8.208-14.96,8.208-24V56c0-4.424-3.576-8-8-8s-8,3.576-8,8v16 c0,13.232-10.768,24-24,24h-16.208c5.08-6.704,8.208-14.96,8.208-24V56c0-4.424-3.584-8-8-8c-4.416,0-8,3.576-8,8v16 c0,13.232-10.768,24-24,24h-56V72z M333.321,166.92l-5.84-4.072L321.153,112h4.688L333.321,166.92z M151.793,119.296l0.832-7.296 h6.224l-6.336,51.016l-6.408,4.456l5.832-46.752C151.993,120.264,151.817,119.752,151.793,119.296z M160.553,270.248 c-4.56-2.944-8.424-6.608-11.672-10.704l60.456,4.032c3.2,9.512,12.096,16.424,22.664,16.424h8c13.232,0,24-10.768,24-24 s-10.768-24-24-24h-8c-10.248,0-18.952,6.488-22.384,15.552l-69.304-4.624c-1.664-5.816-2.32-11.952-1.68-18.192l4.472-35.864 l21.336-14.224c1.936-1.288,3.208-3.712,3.504-6.016L174.977,112h130.056l7.032,56.64c0.288,2.304,1.56,4.552,3.504,5.84 l20.664,13.864l4.88,35.624c2.072,18.28-6.616,36.504-22.088,46.352l-0.792,0.504 C270.241,301.368,208.337,301.152,160.553,270.248z M224.001,256c0-4.416,3.592-8,8-8h8c4.408,0,8,3.584,8,8c0,4.416-3.592,8-8,8 h-8C227.593,264,224.001,260.416,224.001,256z M264.001,312v24h-48v-24H264.001z M20.425,464l33.288-73.224l119.712-31.504 l-35.08,35.08c-2.04,2.04-2.824,5.016-2.056,7.792c0.768,2.784,2.976,4.928,5.768,5.624l24.24,6.064l-6.056,24.24 c-0.824,3.272,0.512,6.72,3.328,8.592L189.577,464H20.425z M177.129,436.464l6.632-26.528c1.072-4.28-1.536-8.624-5.816-9.696 l-18.296-4.576l34.44-34.44l5.904,47.208l5.904,47.208L177.129,436.464z M256.937,464h-33.872l-14-112h61.872L256.937,464z M280.001,408.432l5.904-47.208l34.44,34.432l-18.288,4.576c-4.28,1.08-6.888,5.424-5.816,9.704l6.632,26.528l-28.768,19.176 L280.001,408.432z M290.425,464l26.016-17.344c2.816-1.872,4.144-5.32,3.32-8.592l-6.056-24.24l24.232-6.064 c2.8-0.696,5-2.84,5.776-5.624c0.768-2.776-0.016-5.752-2.056-7.792l-35.08-35.08l119.712,31.504L459.577,464H290.425z"></path> <circle cx="204.001" cy="164" r="12"></circle> <circle cx="276.001" cy="164" r="12"></circle> <path d="M408.001,432h-48c-4.424,0-8,3.576-8,8s3.576,8,8,8h48c4.424,0,8-3.576,8-8S412.425,432,408.001,432z"></path> </g> </g> </g> </g></svg>